<svg width="263" height="41" viewBox="0 0 263 41" fill="none" xmlns="http://www.w3.org/2000/svg">
<path d="M40.4658 17.6434V22.8345H24.3341C23.5023 22.8345 22.8284 23.5084 22.8284 24.3402V40.4718H17.6374V26.5016L7.75924 36.3797L4.09214 32.7065L13.9703 22.8284H0V17.6374H13.9642L4.09214 7.7653L7.75924 4.09211L17.6374 13.9703V0H22.8284V13.9703L32.7065 4.09211L36.3737 7.7653L26.5016 17.6374H40.4719L40.4658 17.6434Z" fill="#0D423E"/>
<path d="M28.0116 28.0146L28.0073 28.0189C26.9956 29.032 26.9967 30.6735 28.0099 31.6852L31.5413 35.2117C32.5544 36.2234 34.1959 36.2223 35.2076 35.2091L35.2119 35.2048C36.2236 34.1917 36.2225 32.5502 35.2093 31.5385L31.6779 28.012C30.6648 27.0003 29.0233 27.0014 28.0116 28.0146Z" fill="#0D423E"/>
<path d="M179.94 28.3595V32.5791H163.019V4.96645H168.222V28.3534H179.933L179.94 28.3595Z" fill="#0D423E"/>
<path d="M190.205 33.2531C185.985 33.2531 182.713 30.8489 182.713 26.3135C182.713 21.3411 186.659 19.4529 190.958 19.4529H194.467C196.635 19.4529 197.624 18.5847 197.624 17.085C197.624 15.1118 195.809 14.1647 193.484 14.1647C190.685 14.1647 188.906 15.5065 188.748 17.9107H183.545C183.86 13.254 186.896 10.2183 193.405 10.2183C199.913 10.2183 202.597 13.3754 202.597 17.7529V27.0603C202.597 28.1228 202.991 28.5175 204.054 28.5175H204.88V32.5792H201.486C199.118 32.5792 197.818 31.3953 197.818 29.3432V28.5175H197.74C196.361 31.7535 193.556 33.2531 190.205 33.2531ZM191.741 29.2278C194.698 29.2278 197.618 27.376 197.618 22.8771V20.8675H197.539C196.871 22.2093 195.609 22.8771 193.356 22.9561L191.741 23.035C189.136 23.1139 188.031 24.4132 188.031 26.1132C188.031 27.8132 189.136 29.2278 191.741 29.2278Z" fill="#0D423E"/>
<path d="M204.518 36.4101H210.668L212.799 31.4012L204.518 10.8921H209.921L215.367 25.3298H215.446L220.928 10.8921H226.253L215.009 38.8144C214.578 39.9193 213.746 40.4718 212.562 40.4718H204.518V36.4101Z" fill="#0D423E"/>
<path d="M226.235 21.7357C226.235 14.5168 230.691 10.2183 236.963 10.2183C243.234 10.2183 247.375 13.9279 247.375 20.9039V23.1503H231.517C231.674 26.86 233.763 29.3007 237.078 29.3007C239.482 29.3007 241.298 28.0014 241.972 25.9068H247.096C246.149 30.2478 242.36 33.241 236.999 33.241C230.569 33.241 226.235 28.8999 226.235 21.7236V21.7357ZM242.366 19.5682C242.366 16.4111 240.472 14.1647 237.078 14.1647C233.684 14.1647 231.875 16.5325 231.559 19.5682H242.366Z" fill="#0D423E"/>
<path d="M250.651 10.8861H255.544V14.3164H255.623C256.649 12.1489 258.028 10.8861 260.912 10.8861H263V14.9478H260.001C257.002 14.9478 255.623 16.5628 255.623 20.1146V32.5791H250.651V10.8861Z" fill="#0D423E"/>
<path d="M50.4763 23.0166H55.9223C56.0802 26.963 58.3691 29.009 62.3094 29.009C66.019 29.009 68.2655 27.1937 68.2655 24.2733C68.2655 22.1848 67.0815 20.5273 63.3719 20.5273H59.8626C53.7488 20.5273 50.8709 17.4127 50.8709 12.9927C50.8709 7.74703 54.9752 4.2742 62.0726 4.2742C69.5283 4.2742 73.1529 8.09917 73.3108 13.9398H67.9862C67.8283 10.3091 65.8551 8.49381 62.0301 8.49381C58.3994 8.49381 56.232 10.0724 56.232 12.7134C56.232 14.6866 57.4523 16.1437 60.8098 16.1437H64.3191C71.2586 16.1437 73.7054 19.8109 73.7054 23.994C73.7054 29.5979 69.4433 33.2226 62.2305 33.2226C55.0177 33.2226 50.6766 29.3187 50.4763 23.0044V23.0166Z" fill="#0D423E"/>
<path d="M83.2686 33.2286C79.049 33.2286 75.7766 30.8244 75.7766 26.2891C75.7766 21.3166 79.7229 19.4284 84.0215 19.4284H87.5308C89.6982 19.4284 90.6879 18.5602 90.6879 17.0606C90.6879 15.0874 88.8725 14.1402 86.5472 14.1402C83.7483 14.1402 81.9694 15.482 81.8115 17.8863H76.6023C76.918 13.2295 79.9537 10.1938 86.4622 10.1938C92.9707 10.1938 95.6543 13.3509 95.6543 17.7284V27.0358C95.6543 28.0983 96.0489 28.493 97.1114 28.493H97.9371V32.5547H94.5432C92.1754 32.5547 90.8761 31.3708 90.8761 29.3187V28.493H90.7972C89.419 31.729 86.614 33.2286 83.2626 33.2286H83.2686ZM84.8047 29.2033C87.7615 29.2033 90.6818 27.3515 90.6818 22.8527V20.843H90.6029C89.935 22.1848 88.6722 22.8527 86.4197 22.9316L84.8047 23.0105C82.2001 23.0894 81.0951 24.3887 81.0951 26.0887C81.0951 27.7887 82.2001 29.2033 84.8047 29.2033Z" fill="#0D423E"/>
<path d="M100.053 1.75461H105.025V32.5608H100.053V1.75461Z" fill="#0D423E"/>
<path d="M108.081 21.7112C108.081 14.4924 112.538 10.1938 118.81 10.1938C125.081 10.1938 129.222 13.9034 129.222 20.8795V23.1259H113.363C113.521 26.8355 115.61 29.2762 118.925 29.2762C121.329 29.2762 123.145 27.9769 123.818 25.8823H128.943C127.996 30.2233 124.207 33.2165 118.846 33.2165C112.416 33.2165 108.081 28.8755 108.081 21.6991V21.7112ZM124.213 19.5437C124.213 16.3866 122.319 14.1402 118.925 14.1402C115.531 14.1402 113.722 16.5081 113.406 19.5437H124.213Z" fill="#0D423E"/>
<path d="M131.179 25.3844H136.309C136.431 28.1044 138.161 29.2883 140.729 29.2883C143.297 29.2883 144.87 28.0255 144.87 26.0948C144.87 24.4009 143.807 23.3748 141.124 23.3748H138.756C134.221 23.3748 131.58 20.8916 131.58 17.2245C131.58 13.0838 134.931 10.206 140.614 10.206C146.297 10.206 149.648 13.2842 149.806 17.8984H144.718C144.597 15.4516 143.261 14.1524 140.614 14.1524C138.246 14.1524 136.789 15.2574 136.789 17.0302C136.789 18.6452 138.009 19.4345 140.025 19.4345H142.629C147.833 19.4345 150.2 22.3548 150.2 25.9005C150.2 30.199 146.807 33.2347 140.772 33.2347C134.737 33.2347 131.343 30.1565 131.185 25.3844H131.179Z" fill="#0D423E"/>
</svg>
